<svg width="496" height="72" viewBox="0 0 496 72" fill="none" xmlns="http://www.w3.org/2000/svg">
<path d="M75.8011 1.3735V3.17625C70.822 3.17625 69.4485 4.12054 68.1609 9.35709L51.8503 71.423H49.1891L38.5443 24.0366L26.7836 71.423H24.1224L7.64013 9.35709C6.35246 4.12054 4.97894 3.17625 -7.43495e-05 3.17625V1.3735H19.916V3.17625C12.0182 3.17625 12.0182 4.29223 13.3059 9.35709L26.526 61.1216H26.8694L37.1708 18.1991L35.1964 9.35709C34.0804 4.20639 32.7927 3.17625 28.1571 3.17625V1.3735H47.9873V3.17625C39.832 3.17625 39.7462 4.29223 40.8621 9.44293L51.7645 61.1216H52.022L65.1563 9.35709C66.444 4.29223 66.444 3.17625 58.3745 3.17625V1.3735H75.8011ZM134.874 1.3735V3.17625C126.719 3.17625 125.946 4.37808 125.946 9.61462V61.8084C125.946 67.0449 126.719 68.2468 134.874 68.2468V70.0495H111.867V68.2468C119.937 68.2468 120.709 67.0449 120.709 61.8084V35.0247H91.1787V61.8084C91.1787 67.0449 91.9513 68.2468 100.021 68.2468V70.0495H77.0143V68.2468C85.1696 68.2468 85.9422 67.0449 85.9422 61.8084V9.61462C85.9422 4.37808 85.1696 3.17625 77.0143 3.17625V1.3735H100.021V3.17625C91.9513 3.17625 91.1787 4.37808 91.1787 9.61462V32.0202H120.709V9.61462C120.709 4.37808 119.937 3.17625 111.867 3.17625V1.3735H134.874ZM163.627 0.0858248L183.371 62.2376C185.002 67.3025 186.547 68.2468 191.955 68.2468V70.0495H171.009V68.2468C179.336 68.2468 179.164 67.2166 177.619 62.2376L172.898 47.043H149.033L144.226 62.2376C142.68 67.2166 142.509 68.2468 150.836 68.2468V70.0495H132.808V68.2468C138.131 68.2468 139.59 67.3025 141.221 62.2376L160.879 0.0858248H163.627ZM160.794 9.44293L149.891 44.296H172.039L161.137 9.44293H160.794ZM200.505 4.37808H193.637C187.371 4.37808 185.911 5.66575 184.795 17.8557L182.649 17.6841L183.937 3.0904L184.109 1.3735H227.546L227.718 3.0904L229.006 17.6841L226.859 17.8557C225.743 5.66575 224.198 4.37808 217.932 4.37808H211.15C209.433 4.37808 208.489 5.32237 208.489 7.03927V61.8084C208.489 67.0449 209.175 68.2468 217.416 68.2468V70.0495H194.238V68.2468C202.479 68.2468 203.166 67.0449 203.166 61.8084V7.03927C203.166 5.32237 202.222 4.37808 200.505 4.37808ZM321.817 1.3735V3.17625C316.838 3.17625 315.465 4.12054 314.177 9.35709L297.867 71.423H295.205L284.561 24.0366L272.8 71.423H270.139L253.656 9.35709C252.369 4.12054 250.995 3.17625 246.016 3.17625V1.3735H265.932V3.17625C258.035 3.17625 258.035 4.29223 259.322 9.35709L272.542 61.1216H272.886L283.187 18.1991L281.213 9.35709C280.097 4.20639 278.809 3.17625 274.173 3.17625V1.3735H294.004V3.17625C285.848 3.17625 285.762 4.29223 286.878 9.44293L297.781 61.1216H298.038L311.173 9.35709C312.46 4.29223 312.46 3.17625 304.391 3.17625V1.3735H321.817ZM364.923 1.3735L365.095 3.0904L366.64 17.6841L364.494 17.8557C363.206 5.66575 361.747 4.37808 355.48 4.37808H340.886C338.483 4.37808 337.195 5.66575 337.195 7.98356V32.7928H350.243C355.394 32.7928 356.596 32.0202 356.596 23.0064H358.399V45.3261H356.596C356.596 36.2266 355.394 35.454 350.243 35.454H337.195V62.1518C337.195 66.1865 337.882 67.0449 341.23 67.0449H355.48C361.918 67.0449 363.807 65.2422 367.498 52.1079L369.73 52.7088L365.266 68.4184L364.837 70.0495H323.031V68.2468C331.186 68.2468 331.959 67.0449 331.959 61.8084V9.61462C331.959 4.37808 331.186 3.17625 323.031 3.17625V1.3735H364.923ZM408.54 70.0495H387.25V68.2468C395.405 68.2468 396.178 67.0449 396.178 61.8084V9.61462C396.178 4.37808 395.405 3.17625 387.25 3.17625V1.3735H407.338C426.052 1.3735 441.075 13.9069 441.075 36.3124C441.075 57.1727 427.941 70.0495 408.54 70.0495ZM407.767 67.1308C426.91 67.1308 435.409 53.138 435.409 36.6558C435.409 17.2548 423.648 4.29223 408.11 4.29223C405.878 4.29223 404.076 4.54977 403.303 4.72146C402.101 4.97899 401.5 5.83744 401.5 7.03927V63.4394C401.5 66.444 403.732 67.1308 407.767 67.1308ZM470.491 71.423C455.64 71.423 445.51 55.4559 445.51 35.7115C445.51 15.9671 455.125 -1.90657e-05 470.405 -1.90657e-05C485.17 -1.90657e-05 495.214 16.053 495.214 35.7115C495.214 55.5417 485.771 71.423 470.491 71.423ZM472.036 68.4184C483.196 68.4184 489.806 55.37 489.806 40.5188C489.806 22.6631 482.252 3.00456 468.774 3.00456C457.7 3.00456 451.004 16.053 451.004 30.8183C451.004 48.8458 458.387 68.4184 472.036 68.4184Z" fill="#222222"/>
</svg>
